<svg width="98" height="116" viewBox="0 0 98 116" fill="none" xmlns="http://www.w3.org/2000/svg">
<g clip-path="url(#clip0_3198_10317)">
<g filter="url(#filter0_i_3198_10317)">
<circle cx="49" cy="24" r="24" fill="url(#paint0_radial_3198_10317)"/>
</g>
<g filter="url(#filter1_i_3198_10317)">
<path fill-rule="evenodd" clip-rule="evenodd" d="M48.8171 52.293C75.7781 52.293 97.6342 74.1491 97.6342 101.11C97.6342 109.171 75.7781 115.705 48.8171 115.705C21.8562 115.705 0 109.171 0 101.11C0 74.1491 21.8562 52.293 48.8171 52.293Z" fill="url(#paint1_radial_3198_10317)"/>
</g>
<mask id="mask0_3198_10317" style="mask-type:alpha" maskUnits="userSpaceOnUse" x="0" y="52" width="98" height="64">
<path fill-rule="evenodd" clip-rule="evenodd" d="M48.8171 52.293C75.7781 52.293 97.6342 74.1491 97.6342 101.11C97.6342 109.171 75.7781 115.705 48.8171 115.705C21.8562 115.705 0 109.171 0 101.11C0 74.1491 21.8562 52.293 48.8171 52.293Z" fill="url(#paint2_radial_3198_10317)"/>
</mask>
<g mask="url(#mask0_3198_10317)">
<g opacity="0.49" filter="url(#filter2_f_3198_10317)">
<path d="M13.5859 47.7578L60.0357 49.2433C76.2274 56.4725 101.231 57.387 66.7148 60.2357C41.5165 62.3153 37.8734 64.395 14.1931 55.7793L13.5859 47.7578Z" fill="#D79917"/>
</g>
</g>
<g style="mix-blend-mode:color">
<rect x="25" width="48" height="48" rx="24" fill="#E39000"/>
</g>
</g>
<defs>
<filter id="filter0_i_3198_10317" x="25" y="-1.23925" width="48.562" height="49.2393" filterUnits="userSpaceOnUse" color-interpolation-filters="sRGB">
<feFlood flood-opacity="0" result="BackgroundImageFix"/>
<feBlend mode="normal" in="SourceGraphic" in2="BackgroundImageFix" result="shape"/>
<feColorMatrix in="SourceAlpha" type="matrix" values="0 0 0 0 0 0 0 0 0 0 0 0 0 0 0 0 0 0 127 0" result="hardAlpha"/>
<feMorphology radius="0.619626" operator="erode" in="SourceAlpha" result="effect1_innerShadow_3198_10317"/>
<feOffset dx="0.561986" dy="-1.23925"/>
<feGaussianBlur stdDeviation="6.46284"/>
<feComposite in2="hardAlpha" operator="arithmetic" k2="-1" k3="1"/>
<feColorMatrix type="matrix" values="0 0 0 0 0.691667 0 0 0 0 0.491626 0 0 0 0 0.0115278 0 0 0 0.89 0"/>
<feBlend mode="normal" in2="shape" result="effect1_innerShadow_3198_10317"/>
</filter>
<filter id="filter1_i_3198_10317" x="0" y="49.2733" width="97.6348" height="66.4298" filterUnits="userSpaceOnUse" color-interpolation-filters="sRGB">
<feFlood flood-opacity="0" result="BackgroundImageFix"/>
<feBlend mode="normal" in="SourceGraphic" in2="BackgroundImageFix" result="shape"/>
<feColorMatrix in="SourceAlpha" type="matrix" values="0 0 0 0 0 0 0 0 0 0 0 0 0 0 0 0 0 0 127 0" result="hardAlpha"/>
<feOffset dy="-3.01962"/>
<feGaussianBlur stdDeviation="23.6537"/>
<feComposite in2="hardAlpha" operator="arithmetic" k2="-1" k3="1"/>
<feColorMatrix type="matrix" values="0 0 0 0 0 0 0 0 0 0 0 0 0 0 0 0 0 0 1 0"/>
<feBlend mode="normal" in2="shape" result="effect1_innerShadow_3198_10317"/>
</filter>
<filter id="filter2_f_3198_10317" x="-15.0379" y="19.1339" width="127.707" height="71.5603" filterUnits="userSpaceOnUse" color-interpolation-filters="sRGB">
<feFlood flood-opacity="0" result="BackgroundImageFix"/>
<feBlend mode="normal" in="SourceGraphic" in2="BackgroundImageFix" result="shape"/>
<feGaussianBlur stdDeviation="14.3119" result="effect1_foregroundBlur_3198_10317"/>
</filter>
<radialGradient id="paint0_radial_3198_10317" cx="0" cy="0" r="1" gradientUnits="userSpaceOnUse" gradientTransform="translate(55.4186 14.7907) rotate(125.972) scale(21.3794)">
<stop stop-color="#FFD97C"/>
<stop offset="1" stop-color="#FFB52B"/>
</radialGradient>
<radialGradient id="paint1_radial_3198_10317" cx="0" cy="0" r="1" gradientUnits="userSpaceOnUse" gradientTransform="translate(58.3792 73.5392) rotate(107.785) scale(20.5961 20.2539)">
<stop stop-color="#5C5C5C"/>
<stop offset="1" stop-color="#252525"/>
</radialGradient>
<radialGradient id="paint2_radial_3198_10317" cx="0" cy="0" r="1" gradientUnits="userSpaceOnUse" gradientTransform="translate(58.3792 73.5392) rotate(107.785) scale(20.5961 20.2539)">
<stop stop-color="#5C5C5C"/>
<stop offset="1" stop-color="#252525"/>
</radialGradient>
<clipPath id="clip0_3198_10317">
<rect width="97.6342" height="115.706" fill="white"/>
</clipPath>
</defs>
</svg>
